# File created by Blade
# Date/Time:  Wed Jan 21 19:03:07 2015
# Frame Rate: 120.000 fps
#------------------------------------------------------
:FULLY-SPECIFIED
:DEGREES
2029
root -3.546643 29.626146 -8.864419 133.982191 22.119536 5.824704
RightUpLeg -121.676268 -14.979897 30.175780
RightLeg -6.926597 -0.000000 0.000000
RightFoot -12.449445 -6.303213 41.558521
RightToeBase 22.459705 -0.000000 -0.000000
LeftUpLeg -141.835203 4.262743 -16.509789
LeftLeg -7.851198 -0.000000 0.000000
LeftFoot 13.482605 -9.927667 -22.047104
LeftToeBase 10.118902 -0.000000 -0.000000
Spine 17.694907 13.335840 -15.889370
RightShoulder 11.172587 45.601086 -47.723544
RightArm 32.382644 16.661925 103.296024
RightForeArm 45.607535 0.000000 112.658065
RightHand 11.951167 -0.000000 -30.082548
RightHandThumb1 -24.326973 -0.000000 -32.862282
LeftShoulder 22.692262 46.202295 23.967405
LeftArm 148.369682 -17.581959 -96.503817
LeftForeArm -21.773723 -0.000000 90.864579
LeftHand -28.716152 -0.000000 -6.403359
LeftHandThumb1 -26.253704 0.000000 33.147579
Head 21.611917 18.597165 -38.417641
2030
root -3.545628 29.626825 -8.848512 133.969630 22.075724 5.814104
RightUpLeg -121.649702 -15.021868 30.099372
RightLeg -6.918076 -0.000000 0.000000
RightFoot -12.513121 -6.319924 41.514272
RightToeBase 22.530377 -0.000000 -0.000000
LeftUpLeg -141.763216 4.316015 -16.515244
LeftLeg -7.890663 -0.000000 0.000000
LeftFoot 13.422780 -9.863101 -22.097215
LeftToeBase 10.178878 -0.000000 -0.000000
Spine 17.805695 13.457069 -15.834323
RightShoulder 11.359623 45.832612 -47.453034
RightArm 32.328430 16.727100 103.613550
RightForeArm 45.196471 -0.000000 112.714657
RightHand 11.975728 -0.000000 -29.702779
RightHandThumb1 -24.326973 -0.000000 -32.862282
LeftShoulder 22.611088 46.047559 23.910022
LeftArm 148.195093 -17.498918 -96.449649
LeftForeArm -21.823251 -0.000000 90.883571
LeftHand -28.709968 -0.000000 -6.446764
LeftHandThumb1 -26.253704 0.000000 33.147579
Head 21.589291 18.572052 -38.493557
2031
root -3.545558 29.627625 -8.830771 133.930520 22.016582 5.803797
RightUpLeg -121.595246 -15.079341 30.007259
RightLeg -6.925923 -0.000000 0.000000
RightFoot -12.548784 -6.345319 41.412388
RightToeBase 22.493867 -0.000000 -0.000000
LeftUpLeg -141.653082 4.379396 -16.537790
LeftLeg -7.943710 -0.000000 0.000000
LeftFoot 13.394401 -9.851929 -22.142066
LeftToeBase 10.161775 -0.000000 -0.000000
Spine 17.983464 13.557728 -15.777714
RightShoulder 11.461655 46.147465 -47.294126
RightArm 32.251435 16.793605 103.941711
RightForeArm 45.058954 -0.000000 112.829340
RightHand 12.052012 -0.000000 -29.620698
RightHandThumb1 -24.326973 -0.000000 -32.862282
LeftShoulder 22.447856 45.920138 23.797391
LeftArm 148.062490 -17.411808 -96.393212
LeftForeArm -21.857639 0.000000 90.911330
LeftHand -28.690162 0.000000 -6.452807
LeftHandThumb1 -26.253704 0.000000 33.147579
Head 21.432350 18.534645 -38.697028
2032
root -3.546047 29.626527 -8.812401 133.884815 21.952883 5.781550
RightUpLeg -121.524608 -15.103755 29.959986
RightLeg -6.984395 -0.000000 0.000000
RightFoot -12.530847 -6.312841 41.410196
RightToeBase 22.488102 -0.000000 -0.000000
LeftUpLeg -141.542959 4.438121 -16.564651
LeftLeg -7.985827 -0.000000 0.000000
LeftFoot 13.283582 -9.736036 -22.282557
LeftToeBase 10.275711 -0.000000 -0.000000
Spine 18.148427 13.727577 -15.723173
RightShoulder 11.528662 46.361750 -47.148408
RightArm 32.167097 16.886218 104.193913
RightForeArm 44.839339 -0.000000 112.928969
RightHand 11.874782 -0.000000 -29.355070
RightHandThumb1 -24.326973 -0.000000 -32.862282
LeftShoulder 22.414553 45.777723 23.799409
LeftArm 147.926552 -17.352706 -96.363540
LeftForeArm -21.923559 -0.000000 90.948280
LeftHand -28.648298 0.000000 -6.427834
LeftHandThumb1 -26.253704 0.000000 33.147579
Head 21.379274 18.431702 -38.864224
2033
root -3.547591 29.625808 -8.793805 133.861653 21.901298 5.778385
RightUpLeg -121.475060 -15.095302 29.971861
RightLeg -7.045091 -0.000000 0.000000
RightFoot -12.518426 -6.261003 41.343658
RightToeBase 22.571604 -0.000000 -0.000000
LeftUpLeg -141.450443 4.503820 -16.573863
LeftLeg -8.029118 -0.000000 0.000000
LeftFoot 13.243960 -9.692093 -22.356497
LeftToeBase 10.292564 -0.000000 -0.000000
Spine 18.302232 13.870098 -15.653391
RightShoulder 11.526842 46.474700 -47.128778
RightArm 32.178467 16.896135 104.377976
RightForeArm 44.608627 -0.000000 112.945735
RightHand 12.144613 0.000000 -29.348692
RightHandThumb1 -24.326973 -0.000000 -32.862282
LeftShoulder 22.341619 45.623055 23.768232
LeftArm 147.776957 -17.332109 -96.321758
LeftForeArm -22.074087 -0.000000 90.990087
LeftHand -28.591056 -0.000000 -6.244569
LeftHandThumb1 -26.253704 0.000000 33.147579
Head 21.281604 18.305769 -39.057061
2034
root -3.548371 29.623724 -8.775427 133.846288 21.859755 5.792202
RightUpLeg -121.425339 -15.084319 30.024152
RightLeg -7.120346 -0.000000 0.000000
RightFoot -12.477223 -6.181098 41.247211
RightToeBase 22.649422 -0.000000 -0.000000
LeftUpLeg -141.361600 4.575886 -16.565138
LeftLeg -8.067533 -0.000000 0.000000
LeftFoot 13.208730 -9.699024 -22.360560
LeftToeBase 10.163145 -0.000000 -0.000000
Spine 18.459535 13.960490 -15.583426
RightShoulder 11.491252 46.550153 -47.088781
RightArm 32.273465 16.863377 104.587351
RightForeArm 44.358509 -0.000000 112.971005
RightHand 12.064337 -0.000000 -29.174976
RightHandThumb1 -24.326973 -0.000000 -32.862282
LeftShoulder 22.190620 45.456689 23.677618
LeftArm 147.619552 -17.261807 -96.295446
LeftForeArm -22.082090 -0.000000 91.047511
LeftHand -28.639343 -0.000000 -6.305457
LeftHandThumb1 -26.253704 0.000000 33.147579
Head 21.106067 18.220302 -39.281256
2035
root -3.551804 29.621724 -8.757480 133.838232 21.817943 5.788473
RightUpLeg -121.373214 -15.034610 30.088599
RightLeg -7.232682 -0.000000 0.000000
RightFoot -12.363098 -6.093864 41.083735
RightToeBase 22.594212 -0.000000 -0.000000
LeftUpLeg -141.300485 4.642246 -16.583792
LeftLeg -8.096160 -0.000000 0.000000
LeftFoot 13.164126 -9.699489 -22.505182
LeftToeBase 10.214910 -0.000000 -0.000000
Spine 18.597041 14.066077 -15.530649
RightShoulder 11.437364 46.675372 -47.070738
RightArm 32.284466 16.854152 104.719296
RightForeArm 44.255916 -0.000000 113.049454
RightHand 11.801926 -0.000000 -29.175386
RightHandThumb1 -24.326973 -0.000000 -32.862282
LeftShoulder 22.054009 45.276168 23.598636
LeftArm 147.449207 -17.237698 -96.256804
LeftForeArm -22.166965 -0.000000 91.097860
LeftHand -28.585704 -0.000000 -6.168941
LeftHandThumb1 -26.253704 0.000000 33.147579
Head 20.923285 18.120071 -39.478384
